<?xml version="1.0" encoding="UTF-8"?>
<svg width="50px" height="41px" viewBox="0 0 50 41" version="1.1" xmlns="http://www.w3.org/2000/svg" xmlns:xlink="http://www.w3.org/1999/xlink">
    <!-- Generator: Sketch 61.2 (89653) - https://sketch.com -->
    <title>logo-面性</title>
    <desc>Created with Sketch.</desc>
    <defs>
        <rect id="path-1" x="0" y="0" width="50" height="40"></rect>
    </defs>
    <g id="页面-1" stroke="none" stroke-width="1" fill="none" fill-rule="evenodd">
        <g id="登录前首页备份-2" transform="translate(-80.000000, -11.000000)">
            <g id="Tab/Top">
                <g id="Tab">
                    <g id="编组-5" transform="translate(80.000000, 12.000000)">
                        <g id="logo-面性">
                            <mask id="mask-2" fill="white">
                                <use xlink:href="#path-1"></use>
                            </mask>
                            <g id="蒙版"></g>
                            <g id="logo-面性备份" mask="url(#mask-2)">
                                <g transform="translate(4.000000, 3.000000)" id="logo">
                                    <g transform="translate(1.911111, 1.888889)">
                                        <g id="fill-2" fill="#FFFFFF" fill-rule="nonzero">
                                            <g id="fill">
                                                <path d="M9.39496213,24.6591117 C9.30707453,24.682329 9.21526378,24.696492 9.12057279,24.7004995 L9.12057279,24.7004995 L7.30657382,24.7067398 L7.0379324,24.7036797 C3.52785205,24.5939572 0.72912911,21.7322798 0.74009794,18.2102947 C0.751305222,14.6117447 3.69145524,11.6844468 7.30842941,11.6732934 C7.40063104,11.673009 7.49357083,11.674907 7.58708238,11.6789593 L7.58708238,11.6789593 L7.70871116,11.6871005 L7.73874315,11.5659709 C7.98612108,10.6527103 8.45409142,9.81114154 9.1301867,9.05231001 L9.1301867,9.05231001 L9.33924657,8.82715372 C10.5502304,7.57469302 12.2080124,6.86421843 13.9582628,6.85882127 C14.3277208,6.85768199 14.6925665,6.89830537 15.0624519,6.98087969 L15.0624519,6.98087969 L15.1972225,7.01476651 L15.2662286,6.86463113 C17.0827253,3.01896203 20.9680666,0.522548721 25.3134304,0.509149139 C29.198458,0.497169073 32.7708667,2.51282561 34.7792788,5.81502066 C35.4426261,6.90568427 36.0154285,8.52756397 36.2893046,10.0553584 L36.2893046,10.0553584 L36.3158831,10.2124515 L36.3624093,10.5978762 L36.4135762,10.6345141 C38.2812605,12.0364387 39.4155686,14.2006218 39.4932642,16.5471737 L39.4932642,16.5471737 L39.4974952,16.8295982 C39.4846783,20.9449912 36.2613006,24.3243594 32.1939055,24.6091984 L32.0965485,24.6590847 L31.3526915,24.6589048 C31.7466085,25.3242029 31.9490634,26.1085035 31.8904498,26.9352019 C31.7345768,29.1335565 29.7928315,30.7789225 27.5639215,30.6251616 C25.4503837,30.4793525 23.8183958,28.7669815 23.784046,26.7163377 C23.3124123,28.1119074 21.9317382,29.0639537 20.3854409,28.9572901 C18.5474708,28.8305008 17.1493439,27.254546 17.2790065,25.4256331 C17.2978995,25.159157 17.3481535,24.902513 17.4259163,24.658901 Z M24.3241257,24.6586395 L23.803061,24.6592595 C23.8893004,24.9268332 23.9418316,25.2085816 23.9559589,25.4993417 C24.0452713,25.2020089 24.1700355,24.9205476 24.3241257,24.6586395 Z" id="形状结合"></path>
                                            </g>
                                        </g>
                                        <g id="编组-4" transform="translate(11.483295, 8.987493)" fill="#242628" fill-rule="nonzero">
                                            <path d="M15.2599105,0.852574546 L15.4215419,0.8581818 C16.7357052,0.947773858 17.7278861,2.06052727 17.6357638,3.34491768 C17.557703,4.4332351 16.7185691,5.31528503 15.6643925,5.4755152 C14.9958411,5.68160563 14.6222611,6.02634976 14.4910383,6.44389517 L14.4612196,6.55952671 L14.4451333,6.65644444 L14.5315622,6.71312456 C15.5398243,7.41688946 16.238922,8.47253029 16.4769018,9.66025317 L16.5215556,9.92988889 L16.6039361,9.9138697 C16.7863261,9.86719393 16.9871618,9.74675409 17.1969013,9.54195603 L17.3024688,9.4324781 L17.4092552,9.30864619 C17.7535142,8.85659071 18.3061736,8.60219389 18.8894167,8.64195506 C19.823303,8.70562203 20.5287651,9.49681385 20.4632341,10.4104627 C20.397727,11.3237566 19.5867823,12.0110235 18.6532467,11.947382 C18.2393853,11.9191673 17.8591861,11.7464105 17.5734022,11.4675544 L17.4809333,11.3692222 L17.4417561,11.3361985 C17.290682,11.2283237 17.0134117,11.1491018 16.7467439,11.1558962 L16.6149269,11.1667271 L16.5234667,11.1850556 L16.5009978,11.3484754 C16.3389783,12.304653 15.8830795,13.1757039 15.2038332,13.8596445 L15.0294093,14.0266726 L14.9238667,14.1166111 L14.9194458,14.1750003 C14.9003667,14.6382203 15.0541427,14.935269 15.3418937,15.1177354 L15.4427193,15.1743845 L15.5427216,15.2188757 C15.7268783,15.2920234 15.9201233,15.3248923 16.0859155,15.332003 L16.213079,15.3324016 L16.2549556,15.3377778 L16.3632635,15.3351986 L16.524895,15.3408058 C17.2153536,15.3878773 17.838101,15.720658 18.2095785,16.2047875 C18.292154,16.2681403 18.3474089,16.3259383 18.3715587,16.4045009 L18.3743778,16.422 L18.442971,16.5299371 C18.6028455,16.8091483 18.7022059,17.1175344 18.7339443,17.4381015 L18.7448158,17.6317676 L18.7391169,17.8275417 C18.6470179,19.1115771 17.506241,20.0783733 16.1924283,19.9888073 C14.878265,19.8992153 13.8860842,18.7864619 13.9782064,17.5020714 C13.9904641,17.331175 14.0214924,17.1639052 14.0663991,17.0153264 L14.1157507,16.8735358 L14.1442459,16.7534553 C14.4137342,15.8032117 14.161349,15.2682621 13.5241943,14.9933032 L13.4781111,14.9751111 L13.3113362,15.0379652 C12.8731263,15.1871201 12.413854,15.2737648 11.9449334,15.2943573 L11.6625145,15.2987581 L11.3783278,15.2871364 C11.1040348,15.268179 10.8341917,15.2271479 10.5707563,15.1647918 L10.4480444,15.1318889 L10.402238,15.1917335 L10.3779385,15.2317697 L10.3565728,15.2737708 L10.3343333,15.3311667 L10.4235188,15.4129763 C10.6566396,15.6442527 10.8158135,15.940065 10.8782071,16.2644053 L10.9012332,16.4287861 L10.9076507,16.5757334 C10.9067749,17.4883605 10.1576651,18.2287693 9.23430034,18.2296468 C8.31058071,18.2305214 7.5623334,17.4909843 7.56320647,16.5780048 C7.5639361,15.817681 8.08742708,15.1652807 8.81357471,14.9778366 L8.84557778,14.9703889 L8.86698193,14.9374861 C8.92612008,14.8315734 8.96054331,14.7211373 8.97244032,14.6055839 L8.97690966,14.4883026 L8.97457778,14.467 L8.87101431,14.3975821 C8.07280832,13.8334088 7.46665091,13.0441038 7.13722172,12.1395893 L7.0606786,11.9111241 L7.02715556,11.7895 L7.00066778,11.7776521 C6.50171556,11.5853833 5.98254701,11.8346206 5.50846386,12.3394517 L5.39989011,12.4604037 L5.29309537,12.5899223 C4.84671067,13.3575045 3.98696018,13.8168952 3.06910583,13.7543227 C1.76412798,13.6653568 0.778872699,12.5603706 0.870352633,11.2849353 C0.961809285,10.009855 2.09461926,9.04981075 3.39924649,9.13875052 C3.73845186,9.16187558 4.0626619,9.25428987 4.35301156,9.40644008 L4.52300719,9.50482208 C5.50061865,10.103331 6.27505541,10.1251857 6.89879994,9.74672759 L6.93542222,9.72211111 L6.95999323,9.59284113 C7.17205434,8.58677514 7.71297126,7.6868111 8.49012382,7.01542275 L8.67361809,6.86460028 L8.76626667,6.79527778 L8.76719676,6.69453423 C8.74959326,6.1303106 8.56260424,5.4282975 8.31760175,4.83049095 L8.20937353,4.58137366 L8.10878203,4.37407031 C8.08283478,4.32354533 7.89605403,4.24547705 7.7113754,4.21263208 C6.77052149,4.14887477 6.06333324,3.35908126 6.12897621,2.44387112 C6.1944833,1.53057725 7.00542806,0.843310286 7.93896364,0.906951789 C8.87284988,0.970618757 9.578312,1.76181058 9.51278101,2.67545941 C9.50222605,2.82261574 9.47209354,2.96596133 9.42361496,3.10271412 L9.36906662,3.23716627 L9.31173211,3.36215593 L9.30233333,3.36222222 L9.28663492,3.38927555 L9.20099452,3.58196596 L9.18615252,3.61850089 C9.15505862,3.70636082 9.15700787,3.78847056 9.2211487,4.06174526 L9.21997974,3.98619318 C9.22083718,3.98504521 9.22257802,3.99250719 9.22547942,4.00494381 L9.60121439,4.77609118 L9.74525711,5.06462369 C9.88933755,5.35077118 10.0093195,5.58051268 10.0964798,5.7350652 C10.1396406,5.81143952 10.2388143,5.89415204 10.3843996,5.97318928 L10.4279778,5.99438889 L10.6119948,5.94803378 C10.8910966,5.88472417 11.1762868,5.84593243 11.4650926,5.83230693 L11.7550121,5.8270942 L12.0467925,5.83880305 C12.4076441,5.86374284 12.7606638,5.92687976 13.1013256,6.02639207 L13.201,6.05766667 L13.2672292,5.95987905 C13.4564109,5.62291413 13.4824121,5.09716327 13.370102,4.72174065 L13.3215509,4.58866613 L13.2670093,4.48423331 L13.2331581,4.42418878 C13.2297478,4.41714977 13.2278481,4.41232757 13.2280512,4.41082107 C12.964937,3.99854494 12.8393104,3.51499546 12.8748534,3.01944743 C12.9543922,1.91052378 13.8218427,1.02372846 14.9319597,0.874145346 L15.0921397,0.857846998 L15.2599105,0.852574546 Z M9.11724798,10.3835981 C9.01855866,11.7785104 10.0996976,12.9908851 11.5337741,13.0899995 C12.9678506,13.1891138 14.209183,12.1372537 14.3078723,10.7423414 C14.4065616,9.3474291 13.3254227,8.13505433 11.8913462,8.03593998 C10.4572696,7.93682563 9.2159373,8.9886858 9.11724798,10.3835981 Z" id="形状结合"></path>
                                        </g>
                                    </g>
                                </g>
                            </g>
                        </g>
                    </g>
                </g>
            </g>
        </g>
    </g>
</svg>